<?xml version="1.0" encoding="UTF-8"?>
<svg version="1.1" viewBox="0 0 2048 281" width="1280" height="1280" xmlns="http://www.w3.org/2000/svg">
<path transform="translate(1742,15)" d="m0 0h16l1 1v18l14 2 15 5 13 7 10 8 8 10 5 11 3 12v11h-52l-3-11-4-6-8-4v37l28 8 19 9 12 9 8 10 4 8 3 12v19l-3 15-8 16-8 9-14 9-15 6-16 4-11 1v14l-1 1h-16l-1-1v-14h-12l-16-3-16-6-14-8-6-5-8-10-7-14-4-16-1-11 1-1h52l4 15 5 8 8 5 14 4v-47l-18-4-18-6-15-8-12-9-7-8-5-11-2-9v-21l4-13 5-9 9-10 9-7 15-7 13-4 21-3 1-17zm-4 60-12 3-6 4-3 5-1 8 3 6 5 4 10 5 7 1v-36zm21 92v41l8-1 10-6 4-7v-11l-4-7-9-6z" fill="#2D7192"/>
<path transform="translate(1851,38)" d="m0 0h52l1 1v75h69v-75l1-1h51l1 1v208h-53v-86h-69v85l-1 1h-52z" fill="#2E7192"/>
<path transform="translate(1353,33)" d="m0 0h11l20 3 15 5 15 8 12 9 7 7 9 14 5 12 3 14v7h-53l-4-13-6-8-5-4-9-4-10-2h-11l-10 2-12 6-7 7-8 16-3 9-2 15v13l2 14 5 15 8 13 8 7 9 4 12 2 13-1 12-4 7-5 7-11 3-11 1-6h53v8l-4 18-5 13-7 12-11 12-12 9-14 7-13 4-11 2h-30l-18-4-15-6-11-7-12-11-9-10-8-13-6-13-5-17-2-12v-31l4-21 6-16 8-14 8-10 8-9 12-9 16-8 12-4 11-2z" fill="#2D7192"/>
<path transform="translate(1527,38)" d="m0 0h53l4 8 23 64 16 44 23 63 10 27v3h-55l-12-35v-2h-71l-3 10-9 27h-55l9-26 20-55 21-58 16-44 9-25zm26 59-8 24-14 45v3h45l-3-12-18-59z" fill="#2D7192"/>
<path transform="translate(1070,30)" d="m0 0h33l18 3 16 6 11 6 10 9 9 14 4 11 1 6v22l-4 17-8 19-9 19-10 19-5 10h39l1 2-16 48-3 7h-125l8-16 18-35 12-22 23-45 3-11v-11l-3-8-5-4-8-3-23-1v-59zm16 29v7l3 1 14 1 11 4 8 6 4 5 4 11v17l-3 12-8 18-14 27-12 22-15 29-1 3h63l2-4v-4l-51-1 13-25 12-22 16-31 7-21 1-15-2-12-6-12-9-8-10-5-11-3z" fill="#2D7192"/>
<path transform="translate(219,33)" d="m0 0h103l19 2 15 5 11 7 8 8 7 12 3 11v24l-3 12-6 12-9 10-17 9 11 4 10 9 6 12 3 13 3 37 4 17 5 10v2h-31l-3-4-2-7-1-10-1-22-3-19-4-13-6-9-8-5-7-2-79-1v92h-28l-1-1v-214zm28 25v75h65l17-2 11-4 10-9 4-6 2-6 1-7v-9l-3-13-6-9-7-6-12-4z" fill="#2E7292"/>
<path transform="translate(689,28)" d="m0 0h10l18 2 17 5 11 6 11 9 8 11 5 10 3 11 1 14-1 1h-26l-5-18-6-10-8-7-10-5-12-3h-26l-15 4-9 6-6 7-4 11v13l4 9 7 6 12 6 18 5 39 9 21 7 13 7 10 9 6 7 5 11 2 9v18l-3 13-6 11-11 12-10 7-15 7-17 4-21 2-18-1-16-3-16-6-11-6-11-9-9-12-6-13-3-13v-13h27l2 14 5 12 6 8 11 8 11 5 13 3 9 1h11l16-2 12-4 10-6 6-7 4-11v-16l-4-9-5-5-5-4-13-6-18-5-39-9-21-7-11-6-10-9-6-8-4-11-1-7v-12l3-14 6-12 8-10 12-9 16-7 18-4z" fill="#2D7192"/>
<path transform="translate(800,33)" d="m0 0h27l1 1v92h113v-92l1-1h27l1 1v215h-28l-1-1v-98h-113v98l-1 1h-28v-215z" fill="#2D7192"/>
<path transform="translate(485,33)" d="m0 0h30l5 10 19 49 22 56 36 92 2 5v4h-31l-13-35-10-27v-3h-92l-3 10-18 49-3 6h-29l3-10 22-56 48-123 10-26zm14 27-5 12-20 55-11 30v3h72l-2-9-18-50-14-39z" fill="#2E7192"/>
<path transform="translate(23,33)" d="m0 0h171l1 1v23l-1 1h-71v190l-1 1h-28v-191h-72v-24z" fill="#317394"/>
<path transform="translate(1190,178)" d="m0 0 4 4 13 23 6 10-2 4-7 7-8 7-13 12-8 7-9 8-2-1 22-68z" fill="#ED8032"/>
</svg>
